# Blender 4.3.0
# www.blender.org
mtllib skybox.mtl
o Cube
v -62.232227 -62.232227 62.232227
v -62.232227 62.232227 62.232227
v -62.232227 -62.232227 -62.232227
v -62.232227 62.232227 -62.232227
v 62.232227 -62.232227 62.232227
v 62.232227 62.232227 62.232227
v 62.232227 -62.232227 -62.232227
v 62.232227 62.232227 -62.232227
vn -0.0000 1.0000 -0.0000
vn -0.0000 -0.0000 1.0000
vn -1.0000 -0.0000 -0.0000
vn -0.0000 -1.0000 -0.0000
vn 1.0000 -0.0000 -0.0000
vn -0.0000 -0.0000 -1.0000
vt 0.818532 0.262902
vt 0.971736 0.109698
vt 0.818532 0.109698
vt 0.078260 0.928683
vt 0.262590 0.744352
vt 0.078260 0.744352
vt 0.070269 0.949451
vt 0.179874 0.839846
vt 0.070269 0.839846
vt 0.031001 0.862140
vt 0.166636 0.726505
vt 0.031001 0.726505
vt 0.082437 0.913097
vt 0.258413 0.737121
vt 0.082437 0.737121
vt 0.063857 0.980594
vt 0.990262 0.029529
vt 0.063857 0.029529
vt 0.971736 0.262902
vt 0.262590 0.928683
vt 0.179874 0.949451
vt 0.166636 0.862140
vt 0.258413 0.913097
vt 0.990262 0.980594
s 0
usemtl Material
f 3/1/1 1/3/1 5/2/1
f 8/4/2 4/6/2 3/5/2
f 6/7/3 8/9/3 7/8/3
f 8/10/4 6/12/4 2/11/4
f 4/13/5 2/15/5 1/14/5
f 2/16/6 6/18/6 5/17/6
f 3/1/1 5/2/1 7/19/1
f 8/4/2 3/5/2 7/20/2
f 6/7/3 7/8/3 5/21/3
f 8/10/4 2/11/4 4/22/4
f 4/13/5 1/14/5 3/23/5
f 2/16/6 5/17/6 1/24/6
